<mxfile host="app.diagrams.net" agent="Mozilla/5.0 (Macintosh; Intel Mac OS X 10_15_7) AppleWebKit/605.1.15 (KHTML, like Gecko) Version/18.5 Safari/605.1.15" version="28.0.6">
  <diagram name="Page-1" id="_j6d6sgy_4B8Z4UjnzTW">
    <mxGraphModel dx="977" dy="691" grid="1" gridSize="10" guides="1" tooltips="1" connect="1" arrows="1" fold="1" page="1" pageScale="1" pageWidth="827" pageHeight="1169" math="0" shadow="0">
      <root>
        <mxCell id="0" />
        <mxCell id="1" parent="0" />
        <mxCell id="_mehwsfHotdwkCs-EOkb-3" value="" style="edgeStyle=orthogonalEdgeStyle;rounded=0;orthogonalLoop=1;jettySize=auto;html=1;" edge="1" parent="1" source="_mehwsfHotdwkCs-EOkb-1" target="_mehwsfHotdwkCs-EOkb-2">
          <mxGeometry relative="1" as="geometry" />
        </mxCell>
        <mxCell id="_mehwsfHotdwkCs-EOkb-1" value="Start" style="ellipse;whiteSpace=wrap;html=1;" vertex="1" parent="1">
          <mxGeometry x="318" y="30" width="191" height="50" as="geometry" />
        </mxCell>
        <mxCell id="_mehwsfHotdwkCs-EOkb-5" value="" style="edgeStyle=orthogonalEdgeStyle;rounded=0;orthogonalLoop=1;jettySize=auto;html=1;" edge="1" parent="1" source="_mehwsfHotdwkCs-EOkb-2" target="_mehwsfHotdwkCs-EOkb-4">
          <mxGeometry relative="1" as="geometry" />
        </mxCell>
        <mxCell id="_mehwsfHotdwkCs-EOkb-2" value="ประกาศตัวแปร N" style="whiteSpace=wrap;html=1;" vertex="1" parent="1">
          <mxGeometry x="290" y="130" width="246.5" height="60" as="geometry" />
        </mxCell>
        <mxCell id="_mehwsfHotdwkCs-EOkb-7" value="" style="edgeStyle=orthogonalEdgeStyle;rounded=0;orthogonalLoop=1;jettySize=auto;html=1;" edge="1" parent="1" source="_mehwsfHotdwkCs-EOkb-4" target="_mehwsfHotdwkCs-EOkb-6">
          <mxGeometry relative="1" as="geometry" />
        </mxCell>
        <mxCell id="_mehwsfHotdwkCs-EOkb-4" value="รับค่าตัวแปร N" style="shape=parallelogram;perimeter=parallelogramPerimeter;whiteSpace=wrap;html=1;fixedSize=1;" vertex="1" parent="1">
          <mxGeometry x="282" y="260" width="263" height="60" as="geometry" />
        </mxCell>
        <mxCell id="_mehwsfHotdwkCs-EOkb-9" value="" style="edgeStyle=orthogonalEdgeStyle;rounded=0;orthogonalLoop=1;jettySize=auto;html=1;" edge="1" parent="1" source="_mehwsfHotdwkCs-EOkb-6" target="_mehwsfHotdwkCs-EOkb-8">
          <mxGeometry relative="1" as="geometry" />
        </mxCell>
        <mxCell id="_mehwsfHotdwkCs-EOkb-6" value="รับค่า scanf เข้าไปใน int N" style="whiteSpace=wrap;html=1;" vertex="1" parent="1">
          <mxGeometry x="302" y="400" width="223.5" height="60" as="geometry" />
        </mxCell>
        <mxCell id="_mehwsfHotdwkCs-EOkb-11" value="" style="edgeStyle=orthogonalEdgeStyle;rounded=0;orthogonalLoop=1;jettySize=auto;html=1;" edge="1" parent="1" source="_mehwsfHotdwkCs-EOkb-8" target="_mehwsfHotdwkCs-EOkb-10">
          <mxGeometry relative="1" as="geometry" />
        </mxCell>
        <mxCell id="_mehwsfHotdwkCs-EOkb-15" value="" style="edgeStyle=orthogonalEdgeStyle;rounded=0;orthogonalLoop=1;jettySize=auto;html=1;" edge="1" parent="1" source="_mehwsfHotdwkCs-EOkb-8" target="_mehwsfHotdwkCs-EOkb-14">
          <mxGeometry relative="1" as="geometry" />
        </mxCell>
        <mxCell id="_mehwsfHotdwkCs-EOkb-8" value="ตรวจสอบ N ว่าเป็นเลขคู่หรือเลขคี่" style="rhombus;whiteSpace=wrap;html=1;" vertex="1" parent="1">
          <mxGeometry x="319.13" y="510" width="189.87" height="200" as="geometry" />
        </mxCell>
        <mxCell id="_mehwsfHotdwkCs-EOkb-18" style="edgeStyle=orthogonalEdgeStyle;rounded=0;orthogonalLoop=1;jettySize=auto;html=1;exitX=0.5;exitY=1;exitDx=0;exitDy=0;entryX=0;entryY=0.5;entryDx=0;entryDy=0;" edge="1" parent="1" source="_mehwsfHotdwkCs-EOkb-10" target="_mehwsfHotdwkCs-EOkb-17">
          <mxGeometry relative="1" as="geometry" />
        </mxCell>
        <mxCell id="_mehwsfHotdwkCs-EOkb-10" value="แสดงค่า N ไปถึง 0" style="shape=parallelogram;perimeter=parallelogramPerimeter;whiteSpace=wrap;html=1;fixedSize=1;" vertex="1" parent="1">
          <mxGeometry x="30" y="730" width="260" height="60" as="geometry" />
        </mxCell>
        <mxCell id="_mehwsfHotdwkCs-EOkb-13" value="N เป็นเลขคู่" style="text;html=1;align=center;verticalAlign=middle;resizable=0;points=[];autosize=1;strokeColor=none;fillColor=none;" vertex="1" parent="1">
          <mxGeometry x="40" y="640" width="80" height="30" as="geometry" />
        </mxCell>
        <mxCell id="_mehwsfHotdwkCs-EOkb-19" style="edgeStyle=orthogonalEdgeStyle;rounded=0;orthogonalLoop=1;jettySize=auto;html=1;exitX=0.5;exitY=1;exitDx=0;exitDy=0;entryX=1;entryY=0.5;entryDx=0;entryDy=0;" edge="1" parent="1" source="_mehwsfHotdwkCs-EOkb-14" target="_mehwsfHotdwkCs-EOkb-17">
          <mxGeometry relative="1" as="geometry" />
        </mxCell>
        <mxCell id="_mehwsfHotdwkCs-EOkb-14" value="แสดง 1 ไปถึง N" style="shape=parallelogram;perimeter=parallelogramPerimeter;whiteSpace=wrap;html=1;fixedSize=1;" vertex="1" parent="1">
          <mxGeometry x="560" y="730" width="253.93" height="60" as="geometry" />
        </mxCell>
        <mxCell id="_mehwsfHotdwkCs-EOkb-16" value="N เป็นเลขคี่" style="text;html=1;align=center;verticalAlign=middle;resizable=0;points=[];autosize=1;strokeColor=none;fillColor=none;" vertex="1" parent="1">
          <mxGeometry x="700" y="650" width="80" height="30" as="geometry" />
        </mxCell>
        <mxCell id="_mehwsfHotdwkCs-EOkb-23" style="edgeStyle=orthogonalEdgeStyle;rounded=0;orthogonalLoop=1;jettySize=auto;html=1;exitX=0.5;exitY=1;exitDx=0;exitDy=0;entryX=0.5;entryY=0;entryDx=0;entryDy=0;" edge="1" parent="1" source="_mehwsfHotdwkCs-EOkb-17" target="_mehwsfHotdwkCs-EOkb-22">
          <mxGeometry relative="1" as="geometry" />
        </mxCell>
        <mxCell id="_mehwsfHotdwkCs-EOkb-17" value="" style="ellipse;whiteSpace=wrap;html=1;aspect=fixed;" vertex="1" parent="1">
          <mxGeometry x="399.07" y="930" width="30" height="30" as="geometry" />
        </mxCell>
        <mxCell id="_mehwsfHotdwkCs-EOkb-22" value="END" style="ellipse;whiteSpace=wrap;html=1;" vertex="1" parent="1">
          <mxGeometry x="329.88" y="1010" width="166.75" height="50" as="geometry" />
        </mxCell>
      </root>
    </mxGraphModel>
  </diagram>
</mxfile>
